<svg width="19" height="17" viewBox="0 0 19 17" fill="none" xmlns="http://www.w3.org/2000/svg">
<path d="M16.9897 5.57541C16.8431 5.40935 16.6628 5.27637 16.4608 5.18527C16.2589 5.09417 16.0399 5.04704 15.8184 5.047H11.2969V3.4845C11.296 2.73883 10.9994 2.02395 10.4722 1.49669C9.94492 0.969423 9.23004 0.672837 8.48438 0.671997C8.42634 0.672002 8.36945 0.688163 8.32008 0.718669C8.27071 0.749176 8.2308 0.792825 8.20483 0.844727L5.1662 6.922H1.60938C1.36082 6.92227 1.12252 7.02114 0.946769 7.19689C0.771014 7.37265 0.672153 7.61094 0.671875 7.8595V14.7345C0.672153 14.9831 0.771014 15.2213 0.946769 15.3971C1.12252 15.5729 1.36082 15.6717 1.60938 15.672H14.8809C15.2616 15.6715 15.629 15.5322 15.9144 15.2803C16.1998 15.0283 16.3836 14.681 16.4313 14.3033L17.3688 6.80328C17.3962 6.58344 17.3766 6.36028 17.3113 6.14859C17.2459 5.9369 17.1363 5.74153 16.9897 5.57541ZM1.29688 14.7345V7.8595C1.29696 7.77664 1.32992 7.69721 1.3885 7.63862C1.44709 7.58004 1.52652 7.54709 1.60938 7.547H5.04688V15.047H1.60938C1.52652 15.0469 1.44709 15.014 1.3885 14.9554C1.32992 14.8968 1.29696 14.8174 1.29688 14.7345ZM16.7487 6.72577L15.8112 14.2258C15.7825 14.4524 15.6722 14.6608 15.501 14.8119C15.3297 14.9631 15.1093 15.0467 14.8809 15.047H5.67188V7.30835L8.67343 1.30508C9.21858 1.35306 9.72602 1.60335 10.0959 2.00671C10.4657 2.41006 10.6712 2.93724 10.6719 3.4845V5.3595C10.6719 5.44238 10.7048 5.52186 10.7634 5.58046C10.822 5.63907 10.9015 5.67199 10.9844 5.672H15.8184C15.9513 5.67201 16.0827 5.70028 16.2039 5.75495C16.325 5.80961 16.4332 5.88942 16.5212 5.98907C16.6092 6.08872 16.6749 6.20594 16.7142 6.33295C16.7534 6.45996 16.7652 6.59386 16.7487 6.72577Z" fill="white" stroke="white" stroke-width="1.344"/>
</svg>
