<svg width="18" height="17" viewBox="0 0 18 17" fill="none" xmlns="http://www.w3.org/2000/svg">
<path fill-rule="evenodd" clip-rule="evenodd" d="M8.993 1.34691C8.0387 0.50883 6.78328 0 5.40796 0C2.42122 0 0 2.3997 0 5.35988C0 6.723 0.50639 7.9742 1.35199 8.92L9 16.5L16.4216 9.1444L16.641 8.9131C17.4866 7.9672 18 6.723 18 5.35988C18 2.3997 15.5788 0 12.592 0C11.2167 0 9.9613 0.50883 9.007 1.34692L9 1.33998L8.993 1.34691ZM9 3.34938L9.0549 3.39755L9.9079 2.55208L9.9968 2.47399C10.6868 1.86806 11.5932 1.5 12.592 1.5C14.763 1.5 16.5 3.24073 16.5 5.35988C16.5 6.3313 16.1385 7.2174 15.5363 7.8981L15.3492 8.0953L9 14.3881L2.44274 7.8891C1.85393 7.2158 1.5 6.3309 1.5 5.35988C1.5 3.24073 3.23699 1.5 5.40796 1.5C6.40675 1.5 7.3132 1.86806 8.0032 2.47398L8.0921 2.55203L8.9452 3.39752L9 3.34938Z" fill="#B96CF5"/>
</svg>
