<svg width="16" height="16" viewBox="0 0 16 16" fill="none" xmlns="http://www.w3.org/2000/svg">
<path d="M14.6995 7.82443L11.4191 11.1057C11.3901 11.1348 11.3557 11.1579 11.3177 11.1736C11.2798 11.1894 11.2391 11.1975 11.1981 11.1976C11.157 11.1976 11.1163 11.1896 11.0783 11.1739C11.0404 11.1581 11.0059 11.1351 10.9768 11.1061C10.9478 11.077 10.9248 11.0425 10.909 11.0046C10.8933 10.9666 10.8853 10.926 10.8853 10.8849C10.8853 10.8438 10.8934 10.8031 10.9092 10.7652C10.9249 10.7273 10.948 10.6928 10.9771 10.6638L13.7242 7.91599H5.72852C5.64564 7.91599 5.56615 7.88306 5.50754 7.82446C5.44894 7.76585 5.41602 7.68637 5.41602 7.60349C5.41602 7.52061 5.44894 7.44112 5.50754 7.38251C5.56615 7.32391 5.64564 7.29099 5.72852 7.29099H13.7242L10.9771 4.54318C10.948 4.51417 10.9249 4.47972 10.9092 4.44178C10.8934 4.40385 10.8853 4.36317 10.8853 4.3221C10.8853 4.28102 10.8933 4.24034 10.909 4.20238C10.9248 4.16443 10.9478 4.12994 10.9768 4.1009C11.0059 4.07185 11.0404 4.04882 11.0783 4.03312C11.1163 4.01742 11.157 4.00936 11.1981 4.00939C11.2391 4.00943 11.2798 4.01757 11.3177 4.03333C11.3557 4.0491 11.3901 4.07219 11.4191 4.10129L14.6995 7.38254C14.7285 7.41155 14.7515 7.446 14.7672 7.48391C14.7829 7.52182 14.791 7.56245 14.791 7.60349C14.791 7.64452 14.7829 7.68515 14.7672 7.72306C14.7515 7.76097 14.7285 7.79542 14.6995 7.82443ZM5.72852 14.166H1.35352C1.27066 14.1659 1.19123 14.1329 1.13264 14.0744C1.07406 14.0158 1.0411 13.9363 1.04102 13.8535V1.35349C1.0411 1.27063 1.07406 1.1912 1.13264 1.13261C1.19123 1.07403 1.27066 1.04107 1.35352 1.04099H5.72852C5.8114 1.04099 5.89088 1.00806 5.94949 0.949456C6.00809 0.890851 6.04102 0.811365 6.04102 0.728485C6.04102 0.645605 6.00809 0.566119 5.94949 0.507514C5.89088 0.448909 5.8114 0.415985 5.72852 0.415985H1.35352C1.10496 0.416263 0.866665 0.515124 0.69091 0.690879C0.515155 0.866635 0.416293 1.10493 0.416016 1.35349V13.8535C0.416293 14.102 0.515155 14.3403 0.69091 14.5161C0.866665 14.6918 1.10496 14.7907 1.35352 14.791H5.72852C5.8114 14.791 5.89088 14.7581 5.94949 14.6995C6.00809 14.6409 6.04102 14.5614 6.04102 14.4785C6.04102 14.3956 6.00809 14.3161 5.94949 14.2575C5.89088 14.1989 5.8114 14.166 5.72852 14.166Z" fill="#FFFAF1" fill-opacity="0.92" stroke="#FFFAF1" stroke-opacity="0.92" stroke-width="0.832"/>
</svg>
