<svg width="19" height="17" viewBox="0 0 19 17" fill="none" xmlns="http://www.w3.org/2000/svg">
<path d="M9.28016 13.9421L4.32741 16.8173C4.2116 16.8846 4.07751 16.9178 3.94202 16.9125C3.80654 16.9073 3.6757 16.8639 3.56596 16.7879C3.45622 16.7119 3.3725 16.6066 3.3253 16.4852C3.27811 16.3639 3.26957 16.2319 3.30074 16.106L4.63541 10.7203L0.239075 7.1127C0.13631 7.02829 0.0619835 6.91676 0.0254425 6.79214C-0.0110985 6.66752 -0.00822285 6.53536 0.0337079 6.4123C0.0756387 6.28923 0.154753 6.18074 0.261101 6.10048C0.36745 6.02022 0.496286 5.97176 0.631409 5.9612L6.40916 5.50883L8.64583 0.403201C8.69811 0.28377 8.78624 0.181767 8.89911 0.110023C9.01198 0.0382796 9.14455 0 9.28016 0C9.41576 0 9.54834 0.0382796 9.66121 0.110023C9.77408 0.181767 9.8622 0.28377 9.91449 0.403201L12.1512 5.50883L17.9289 5.9612C18.064 5.97191 18.1927 6.02048 18.2989 6.1008C18.4051 6.18113 18.4841 6.28962 18.5259 6.41266C18.5677 6.5357 18.5705 6.66779 18.534 6.79234C18.4974 6.91689 18.4231 7.02835 18.3203 7.1127L13.9249 10.7203L15.2596 16.106C15.2908 16.2319 15.2822 16.3639 15.235 16.4852C15.1878 16.6066 15.1041 16.7119 14.9944 16.7879C14.8846 16.8639 14.7538 16.9073 14.6183 16.9125C14.4828 16.9178 14.3487 16.8846 14.2329 16.8173L9.28016 13.9421Z" fill="#FFAF53"/>
</svg>
