<svg width="53" height="54" viewBox="0 0 53 54" fill="none" xmlns="http://www.w3.org/2000/svg">
<path d="M49.1806 4.88815L49.3251 5.31388L50.887 10.4406C51.1836 11.4139 50.6602 12.4257 49.7019 12.8221L49.4301 12.9144L19.0372 21.1147L50.6545 21.1172C51.7303 21.1172 52.6194 21.8696 52.7601 22.8458L52.7795 23.1172V45.7785C52.7795 49.6786 49.5447 52.8676 45.4625 53.0985L44.9879 53.1119H9.57442C5.43058 53.1119 2.04227 50.0673 1.79697 46.2253L1.78275 45.7785L1.78217 23.4L0.303846 18.5436C-0.838351 14.7946 1.33722 10.89 5.19366 9.60905L5.646 9.47305L39.6876 0.285972C43.6709 -0.789037 47.8196 1.25856 49.1806 4.88815ZM48.5271 25.1146H6.03275V45.7785C6.03275 47.3894 7.24677 48.7333 8.86065 49.0441L9.2123 49.0947L9.57442 49.1119H44.9879C46.8216 49.1119 48.3299 47.8002 48.5112 46.1194L48.5295 45.7785L48.5271 25.1146ZM11.0553 12.1744L6.81746 13.3181C5.05474 13.7938 3.98894 15.446 4.30685 17.1088L4.38908 17.4411L5.3647 20.6434L6.20078 20.4171L11.0553 12.1744ZM24.5316 8.53744L16.832 10.6154L11.9775 18.8581L19.677 16.7801L24.5316 8.53744ZM38.0106 4.89976L30.311 6.9777L25.4565 15.2204L33.1533 13.1432L38.0106 4.89976ZM43.2443 4.27694L38.9354 11.5827L46.2129 9.61934L45.2397 6.41643C44.9361 5.41986 44.1815 4.66001 43.2443 4.27694Z" fill="#B96CF5"/>
</svg>
